<?xml version="1.0" encoding="UTF-8"?>
<svg version="1.1" xmlns="http://www.w3.org/2000/svg" width="128" height="128">
<path d="M0 0 C0.73072723 -0.02146591 1.46145447 -0.04293182 2.21432495 -0.06504822 C4.63006574 -0.12851164 7.04476812 -0.1606956 9.46118164 -0.18725586 C10.70560122 -0.20609235 10.70560122 -0.20609235 11.9751606 -0.22530937 C16.37328169 -0.29112177 20.77088455 -0.33311023 25.16943359 -0.35546875 C29.68366536 -0.38286388 34.19229999 -0.48908016 38.70471859 -0.61455631 C42.19933891 -0.69721321 45.69265908 -0.72060921 49.18817329 -0.72875786 C50.84961916 -0.74258542 52.51104691 -0.77790837 54.17152214 -0.83635139 C62.30161988 -1.10271736 68.93596015 -0.75315261 75.48250771 4.49532509 C80.97487458 9.65062791 83.73777059 14.59276004 84.22314453 22.14111328 C84.29905638 25.31256291 84.20555276 28.4634683 84.09399414 31.63305664 C84.07986101 33.33121808 84.07096018 35.02943024 84.06700134 36.72764587 C84.04570961 40.26010237 83.98246732 43.78819249 83.88427734 47.31933594 C83.7589906 51.8423615 83.70892087 56.36218342 83.68592167 60.88677311 C83.66050535 65.21928442 83.59706747 69.55100004 83.53149414 73.88305664 C83.52245623 74.70531298 83.51341831 75.52756931 83.50410652 76.37474251 C83.47188589 78.69896762 83.41249105 81.02082619 83.34423828 83.34423828 C83.3381958 84.02944046 83.33215332 84.71464264 83.32592773 85.42060852 C83.20839574 88.49179292 82.80388851 90.46931332 81.16038513 93.08531189 C77.65681229 95.31359052 74.42128266 95.21954937 70.39868164 95.17797852 C69.56571564 95.18498779 68.73274963 95.19199707 67.87454224 95.19921875 C65.12313428 95.21681358 62.37275618 95.20517098 59.62133789 95.19165039 C57.70849409 95.19434488 55.79565162 95.19822695 53.8828125 95.20324707 C49.87462315 95.20914413 45.86679046 95.20057247 41.85864258 95.18188477 C36.72018547 95.15909511 31.58256402 95.17221708 26.44413757 95.19617462 C22.49444275 95.21062698 18.54494614 95.20602919 14.59524536 95.19566345 C12.70061138 95.19299461 10.80595942 95.19627145 8.91134644 95.20558167 C6.26341061 95.21573804 3.61682906 95.20025963 0.96899414 95.17797852 C0.18549591 95.18607544 -0.59800232 95.19417236 -1.40524292 95.20251465 C-4.7086905 95.15100248 -6.95784092 94.87874384 -9.80163574 93.14587402 C-11.94605526 89.62668922 -11.87507716 86.37520885 -11.83374023 82.37524414 C-11.84074951 81.54227814 -11.84775879 80.70931213 -11.85498047 79.85110474 C-11.8725753 77.09969678 -11.8609327 74.34931868 -11.84741211 71.59790039 C-11.8501066 69.68505659 -11.85398866 67.77221412 -11.85900879 65.859375 C-11.86490585 61.85118565 -11.85633419 57.84335296 -11.83764648 53.83520508 C-11.81485683 48.69674797 -11.8279788 43.55912652 -11.85193634 38.42070007 C-11.8663887 34.47100525 -11.86179091 30.52150864 -11.85142517 26.57180786 C-11.84875633 24.67717388 -11.85203317 22.78252192 -11.86134338 20.88790894 C-11.87149976 18.23997311 -11.85602135 15.59339156 -11.83374023 12.94555664 C-11.84183716 12.16205841 -11.84993408 11.37856018 -11.85827637 10.57131958 C-11.80621601 7.23271656 -11.54906231 5.02659464 -9.74107361 2.18385315 C-6.52154236 0.16117984 -3.69525419 0.03258673 0 0 Z " fill="#488CF6" transform="translate(28.316162109375,16.339599609375)"/>
<path d="M0 0 C7.80575195 -0.02312792 15.61149595 -0.04091738 23.41727352 -0.05181217 C27.0414596 -0.05704002 30.6656223 -0.06413587 34.28979492 -0.07543945 C37.78459975 -0.08627184 41.27938204 -0.09227758 44.77420235 -0.09487724 C46.76239389 -0.09763551 48.75057631 -0.10544688 50.73875427 -0.11329651 C51.93992386 -0.11337204 53.14109344 -0.11344757 54.37866211 -0.11352539 C55.97417152 -0.11685631 55.97417152 -0.11685631 57.60191345 -0.12025452 C60 0 60 0 61 1 C61.0928726 2.41225046 61.11746772 3.82908934 61.11352539 5.24438477 C61.11340454 6.15788696 61.11328369 7.07138916 61.11315918 8.01257324 C61.10804321 8.97908813 61.10292725 9.94560303 61.09765625 10.94140625 C61.09664917 11.82501831 61.09564209 12.70863037 61.09460449 13.61901855 C61.08935531 16.93352549 61.07539417 20.24801399 61.0625 23.5625 C61.041875 30.966875 61.02125 38.37125 61 46 C40.54 46 20.08 46 -1 46 C-1.020625 38.78125 -1.04125 31.5625 -1.0625 24.125 C-1.071604 21.84609863 -1.08070801 19.56719727 -1.09008789 17.21923828 C-1.09300759 15.41959695 -1.09555602 13.61995497 -1.09765625 11.8203125 C-1.10277222 10.88050537 -1.10788818 9.94069824 -1.11315918 8.97241211 C-1.11328003 8.0793335 -1.11340088 7.18625488 -1.11352539 6.26611328 C-1.115746 5.48889923 -1.11796661 4.71168518 -1.12025452 3.91091919 C-1 2 -1 2 0 0 Z " fill="#F1F2F2" transform="translate(34,65)"/>
<path d="M0 0 C16.17 0 32.34 0 49 0 C49.020625 5.424375 49.04125 10.84875 49.0625 16.4375 C49.071604 18.15122803 49.08070801 19.86495605 49.09008789 21.63061523 C49.09300716 22.98160727 49.09555569 24.33260019 49.09765625 25.68359375 C49.10277222 26.39100708 49.10788818 27.09842041 49.11315918 27.82727051 C49.11347032 29.55192617 49.06225761 31.27646838 49 33 C48 34 48 34 46.09544373 34.12025452 C45.26271439 34.11803391 44.42998505 34.11581329 43.57202148 34.11352539 C42.63112167 34.11344986 41.69022186 34.11337433 40.72080994 34.11329651 C39.69790359 34.10813522 38.67499725 34.10297394 37.62109375 34.09765625 C36.57929459 34.0962413 35.53749542 34.09482635 34.46412659 34.09336853 C31.12188906 34.0877508 27.77971743 34.0751953 24.4375 34.0625 C22.17773534 34.05748728 19.91796963 34.05292398 17.65820312 34.04882812 C12.10544609 34.03777561 6.55272775 34.02102024 1 34 C-0.47908271 31.04183458 -0.12201325 28.04551087 -0.09765625 24.8046875 C-0.09515869 23.51030762 -0.09266113 22.21592773 -0.09008789 20.88232422 C-0.08098389 19.22990723 -0.07187988 17.57749023 -0.0625 15.875 C-0.041875 10.63625 -0.02125 5.3975 0 0 Z " fill="#E2E5E7" transform="translate(46,17)"/>
<path d="M0 0 C7.80575195 -0.02312792 15.61149595 -0.04091738 23.41727352 -0.05181217 C27.0414596 -0.05704002 30.6656223 -0.06413587 34.28979492 -0.07543945 C37.78459975 -0.08627184 41.27938204 -0.09227758 44.77420235 -0.09487724 C46.76239389 -0.09763551 48.75057631 -0.10544688 50.73875427 -0.11329651 C51.93992386 -0.11337204 53.14109344 -0.11344757 54.37866211 -0.11352539 C55.97417152 -0.11685631 55.97417152 -0.11685631 57.60191345 -0.12025452 C60 0 60 0 61 1 C61.0928726 2.41225046 61.11746772 3.82908934 61.11352539 5.24438477 C61.11340454 6.15788696 61.11328369 7.07138916 61.11315918 8.01257324 C61.10804321 8.97908813 61.10292725 9.94560303 61.09765625 10.94140625 C61.09664917 11.82501831 61.09564209 12.70863037 61.09460449 13.61901855 C61.08935531 16.93352549 61.07539417 20.24801399 61.0625 23.5625 C61.041875 30.966875 61.02125 38.37125 61 46 C40.54 46 20.08 46 -1 46 C-1 31.48 -1 16.96 -1 2 C-0.67 2 -0.34 2 0 2 C0 14.54 0 27.08 0 40 C18.48 40 36.96 40 56 40 C56 27.13 56 14.26 56 1 C37.52 1 19.04 1 0 1 C0 0.67 0 0.34 0 0 Z " fill="#E3E4E6" transform="translate(34,65)"/>
<path d="M0 0 C6 5 6 5 6.7484436 8.49757385 C6.77779849 9.85556918 6.7744676 11.21452498 6.74462891 12.57250977 C6.75193024 13.31783966 6.75923157 14.06316956 6.76675415 14.83108521 C6.78291727 17.28546386 6.75579909 19.73718083 6.7265625 22.19140625 C6.72552476 23.90103656 6.72656224 25.61066928 6.72958374 27.32029724 C6.72940452 30.89903505 6.70859419 34.47686958 6.67236328 38.05541992 C6.62695258 42.64128975 6.62590833 47.22584247 6.63939857 51.81187534 C6.64608253 55.3404256 6.63281087 58.86867578 6.61314011 62.39716911 C6.60544578 64.08803678 6.60313569 65.77893784 6.6063118 67.46982002 C6.60705403 69.83282167 6.58179679 72.19413673 6.54931641 74.55688477 C6.55674866 75.60354057 6.55674866 75.60354057 6.56433105 76.67134094 C6.49120798 80.00589889 6.18895289 81.75014702 4.15414429 84.44078064 C1.23791359 86.55161574 -0.69189715 86.40470012 -4.25 86.25 C-5.32765625 86.21390625 -6.4053125 86.1778125 -7.515625 86.140625 C-8.33546875 86.09421875 -9.1553125 86.0478125 -10 86 C-10.042721 84.33388095 -10.04063832 82.66617115 -10 81 C-8.06729418 79.06729418 -4.61358612 79.37336945 -2 79 C-1.505 78.505 -1.505 78.505 -1 78 C-2.98 77.67 -4.96 77.34 -7 77 C-7 75.02 -7 73.04 -7 71 C-4.69 71 -2.38 71 0 71 C0 47.57 0 24.14 0 0 Z " fill="#377DE3" transform="translate(105,25)"/>
<path d="M0 0 C4.29 0 8.58 0 13 0 C13 10.89 13 21.78 13 33 C9.04 33 5.08 33 1 33 C0 32 0 32 -0.11352539 28.94897461 C-0.11336634 27.60008729 -0.10767612 26.25119386 -0.09765625 24.90234375 C-0.0962413 24.19348526 -0.09482635 23.48462677 -0.09336853 22.75428772 C-0.08775443 20.48198288 -0.07519963 18.20977525 -0.0625 15.9375 C-0.05748681 14.40039204 -0.05292359 12.86328255 -0.04882812 11.32617188 C-0.03778042 7.55074358 -0.02050641 3.77538829 0 0 Z " fill="#2366D3" transform="translate(33,18)"/>
<path d="M0 0 C7.80575195 -0.02312792 15.61149595 -0.04091738 23.41727352 -0.05181217 C27.0414596 -0.05704002 30.6656223 -0.06413587 34.28979492 -0.07543945 C37.78459975 -0.08627184 41.27938204 -0.09227758 44.77420235 -0.09487724 C46.76239389 -0.09763551 48.75057631 -0.10544688 50.73875427 -0.11329651 C51.93992386 -0.11337204 53.14109344 -0.11344757 54.37866211 -0.11352539 C55.97417152 -0.11685631 55.97417152 -0.11685631 57.60191345 -0.12025452 C60 0 60 0 61 1 C61.0928726 2.41225046 61.11746772 3.82908934 61.11352539 5.24438477 C61.11340454 6.15788696 61.11328369 7.07138916 61.11315918 8.01257324 C61.10804321 8.97908813 61.10292725 9.94560303 61.09765625 10.94140625 C61.09664917 11.82501831 61.09564209 12.70863037 61.09460449 13.61901855 C61.08935531 16.93352549 61.07539417 20.24801399 61.0625 23.5625 C61.041875 30.966875 61.02125 38.37125 61 46 C40.54 46 20.08 46 -1 46 C-1 45.01 -1 44.02 -1 43 C18.8 43 38.6 43 59 43 C59 29.14 59 15.28 59 1 C39.53 1 20.06 1 0 1 C0 0.67 0 0.34 0 0 Z " fill="#C9D1DC" transform="translate(34,65)"/>
<path d="M0 0 C16.17 0 32.34 0 49 0 C49.020625 5.424375 49.04125 10.84875 49.0625 16.4375 C49.071604 18.15122803 49.08070801 19.86495605 49.09008789 21.63061523 C49.09300716 22.98160727 49.09555569 24.33260019 49.09765625 25.68359375 C49.10277222 26.39100708 49.10788818 27.09842041 49.11315918 27.82727051 C49.11347032 29.55192617 49.06225761 31.27646838 49 33 C48 34 48 34 46.09544373 34.12025452 C45.26271439 34.11803391 44.42998505 34.11581329 43.57202148 34.11352539 C42.63112167 34.11344986 41.69022186 34.11337433 40.72080994 34.11329651 C39.69790359 34.10813522 38.67499725 34.10297394 37.62109375 34.09765625 C36.57929459 34.0962413 35.53749542 34.09482635 34.46412659 34.09336853 C31.12188906 34.0877508 27.77971743 34.0751953 24.4375 34.0625 C22.17773534 34.05748728 19.91796963 34.05292398 17.65820312 34.04882812 C12.10544609 34.03777561 6.55272775 34.02102024 1 34 C-0.47908271 31.04183458 -0.12201325 28.04551087 -0.09765625 24.8046875 C-0.09515869 23.51030762 -0.09266113 22.21592773 -0.09008789 20.88232422 C-0.08098389 19.22990723 -0.07187988 17.57749023 -0.0625 15.875 C-0.041875 10.63625 -0.02125 5.3975 0 0 Z M1 1 C1 11.23 1 21.46 1 32 C7.23006601 32.06877015 13.45882203 32.12853381 19.68896484 32.16479492 C21.80945288 32.17990645 23.92990954 32.2003964 26.05029297 32.22631836 C29.09350311 32.26259786 32.13630103 32.27970242 35.1796875 32.29296875 C36.13181122 32.30845261 37.08393494 32.32393646 38.06491089 32.33988953 C38.94567291 32.34011612 39.82643494 32.34034271 40.73388672 32.34057617 C41.89970779 32.35056892 41.89970779 32.35056892 43.08908081 32.36076355 C43.71968414 32.24171158 44.35028748 32.12265961 45 32 C47.39112209 28.41331687 47.23381027 26.83603431 47.1953125 22.58203125 C47.19031738 21.4525708 47.18532227 20.32311035 47.18017578 19.15942383 C47.16196777 17.72493896 47.14375977 16.2904541 47.125 14.8125 C47.063125 7.9753125 47.063125 7.9753125 47 1 C31.82 1 16.64 1 1 1 Z " fill="#CCD1D8" transform="translate(46,17)"/>
<path d="M0 0 C3.3 0 6.6 0 10 0 C10 7.59 10 15.18 10 23 C6.7 23 3.4 23 0 23 C0 15.41 0 7.82 0 0 Z " fill="#3A7EE1" transform="translate(79,22)"/>
<path d="M0 0 C9.57 0 19.14 0 29 0 C29.33 0.66 29.66 1.32 30 2 C27.33821779 3.3308911 25.31260604 3.11268993 22.3359375 3.09765625 C21.21445312 3.09443359 20.09296875 3.09121094 18.9375 3.08789062 C17.761875 3.07951172 16.58625 3.07113281 15.375 3.0625 C14.19164062 3.05798828 13.00828125 3.05347656 11.7890625 3.04882812 C8.85935361 3.03701478 5.92967059 3.0190789 3 3 C2.67 10.26 2.34 17.52 2 25 C1.34 25 0.68 25 0 25 C0 16.75 0 8.5 0 0 Z " fill="#FCFCFC" transform="translate(35,67)"/>
<path d="M0 0 C4.95 0 9.9 0 15 0 C15 1.98 15 3.96 15 6 C13.08458862 6.10841951 11.16740227 6.18578079 9.25 6.25 C7.64898438 6.31960937 7.64898438 6.31960937 6.015625 6.390625 C2.36197888 5.91735478 1.27771895 4.80844958 -1 2 C-0.67 1.34 -0.34 0.68 0 0 Z " fill="#387EE3" transform="translate(18,105)"/>
<path d="M0 0 C0.99 0 1.98 0 3 0 C3 7.26 3 14.52 3 22 C-0.3 22 -3.6 22 -7 22 C-7 21.34 -7 20.68 -7 20 C-3.535 19.505 -3.535 19.505 0 19 C0 12.73 0 6.46 0 0 Z " fill="#2367D3" transform="translate(86,23)"/>
<path d="M0 0 C2.31 0 4.62 0 7 0 C7.33 1.65 7.66 3.3 8 5 C5.36 5 2.72 5 0 5 C0 3.35 0 1.7 0 0 Z " fill="#2468D4" transform="translate(98,96)"/>
<path d="M0 0 C2.31 0 4.62 0 7 0 C7 1.65 7 3.3 7 5 C4.69 5 2.38 5 0 5 C0 3.35 0 1.7 0 0 Z " fill="#2367D4" transform="translate(23,96)"/>
</svg>
